# xmcd
#
# Track frame offsets:
#	150
#	22150
#	35325
#	55518
#	75082
#	92626
#	115750
#	131522
#	146555
#	193368
#	212196
#	224289
#	240060
#	254368
#	275946
#
# Disc length: 4264 seconds
#
# Revision: 1
# Processed by: cddbd v1.5.2PL0 Copyright (c) Steve Scherf et al.
# Submitted via: audiograbber 1.83.01
#
DISCID=d310a60f
DTITLE=покуйамдяиытгс хамасгс [2006] - and ои еполемои [сто лецаяо]
DYEAR=2006
DGENRE=
TTITLE0=лимояе тгс ахгмас
TTITLE1=фезлпейийо окулпиадос
TTITLE2=йаты сто циако - цкуйеяиа
TTITLE3=та йоуяекиа
TTITLE4=г лпакамта тоу оуяи
TTITLE5=стауяос тоу мотоу
TTITLE6=ваятаетои
TTITLE7=стоу жеццаяиоу тгм ацйакиа
TTITLE8=лекыдиа йымстамтимоупокгс
TTITLE9=улмос стг фыг
TTITLE10=диабокийес пемиес
TTITLE11=ха паы ейеи стгм аяапиа
TTITLE12=ти ейама циа пятг лоу
TTITLE13=йи екецес
TTITLE14=та пгяес ока - цкуйеяиа
EXTD=
EXTT0=
EXTT1=
EXTT2=
EXTT3=
EXTT4=
EXTT5=
EXTT6=
EXTT7=
EXTT8=
EXTT9=
EXTT10=
EXTT11=
EXTT12=
EXTT13=
EXTT14=
PLAYORDER=
